<mxfile host="app.diagrams.net" modified="2024-02-06T07:37:36.657Z" agent="Mozilla/5.0 (Macintosh; Intel Mac OS X 10_15_7) AppleWebKit/537.36 (KHTML, like Gecko) Chrome/121.0.0.0 Safari/537.36" etag="VxSxZXV0iMy1oJfzOoFE" version="23.0.2" type="github">
  <diagram name="第 1 页" id="RS2oqep8soCqUfkU9GSQ">
    <mxGraphModel dx="1887" dy="612" grid="1" gridSize="10" guides="1" tooltips="1" connect="1" arrows="1" fold="1" page="1" pageScale="1" pageWidth="827" pageHeight="1169" math="0" shadow="0">
      <root>
        <mxCell id="0" />
        <mxCell id="1" parent="0" />
        <mxCell id="eS6wFpmXcqXi8iL8XK0C-51" value="" style="group" vertex="1" connectable="0" parent="1">
          <mxGeometry x="-120" y="350" width="983" height="438" as="geometry" />
        </mxCell>
        <mxCell id="eS6wFpmXcqXi8iL8XK0C-27" value="" style="group" vertex="1" connectable="0" parent="eS6wFpmXcqXi8iL8XK0C-51">
          <mxGeometry width="980" height="80" as="geometry" />
        </mxCell>
        <mxCell id="eS6wFpmXcqXi8iL8XK0C-28" value="&lt;font style=&quot;font-size: 20px;&quot;&gt;&lt;b&gt;访问层&lt;/b&gt;&lt;/font&gt;" style="rounded=0;whiteSpace=wrap;html=1;" vertex="1" parent="eS6wFpmXcqXi8iL8XK0C-27">
          <mxGeometry y="-4" width="130" height="80" as="geometry" />
        </mxCell>
        <mxCell id="eS6wFpmXcqXi8iL8XK0C-29" value="" style="rounded=0;whiteSpace=wrap;html=1;" vertex="1" parent="eS6wFpmXcqXi8iL8XK0C-27">
          <mxGeometry x="120" y="-4" width="840" height="80" as="geometry" />
        </mxCell>
        <mxCell id="eS6wFpmXcqXi8iL8XK0C-30" value="&lt;font style=&quot;font-size: 20px;&quot;&gt;政务服务网&lt;/font&gt;" style="rounded=1;whiteSpace=wrap;html=1;" vertex="1" parent="eS6wFpmXcqXi8iL8XK0C-27">
          <mxGeometry x="140" y="10" width="250" height="60" as="geometry" />
        </mxCell>
        <mxCell id="eS6wFpmXcqXi8iL8XK0C-31" value="&lt;font style=&quot;font-size: 20px;&quot;&gt;行政审批系统&lt;/font&gt;" style="rounded=1;whiteSpace=wrap;html=1;" vertex="1" parent="eS6wFpmXcqXi8iL8XK0C-27">
          <mxGeometry x="415" y="10" width="250" height="60" as="geometry" />
        </mxCell>
        <mxCell id="eS6wFpmXcqXi8iL8XK0C-32" value="&lt;font style=&quot;font-size: 20px;&quot;&gt;部门业务系统&lt;/font&gt;" style="rounded=1;whiteSpace=wrap;html=1;" vertex="1" parent="eS6wFpmXcqXi8iL8XK0C-27">
          <mxGeometry x="690" y="10" width="250" height="60" as="geometry" />
        </mxCell>
        <mxCell id="eS6wFpmXcqXi8iL8XK0C-33" value="" style="group" vertex="1" connectable="0" parent="eS6wFpmXcqXi8iL8XK0C-51">
          <mxGeometry y="118" width="980" height="80" as="geometry" />
        </mxCell>
        <mxCell id="eS6wFpmXcqXi8iL8XK0C-34" value="&lt;span style=&quot;font-size: 20px;&quot;&gt;&lt;b&gt;应用层&lt;/b&gt;&lt;/span&gt;" style="rounded=0;whiteSpace=wrap;html=1;" vertex="1" parent="eS6wFpmXcqXi8iL8XK0C-33">
          <mxGeometry width="130" height="80" as="geometry" />
        </mxCell>
        <mxCell id="eS6wFpmXcqXi8iL8XK0C-35" value="" style="rounded=0;whiteSpace=wrap;html=1;" vertex="1" parent="eS6wFpmXcqXi8iL8XK0C-33">
          <mxGeometry x="120" width="840" height="80" as="geometry" />
        </mxCell>
        <mxCell id="eS6wFpmXcqXi8iL8XK0C-58" value="&lt;span style=&quot;font-size: 20px;&quot;&gt;区块链BaaS系统&lt;/span&gt;" style="rounded=1;whiteSpace=wrap;html=1;" vertex="1" parent="eS6wFpmXcqXi8iL8XK0C-33">
          <mxGeometry x="770" y="10" width="170" height="60" as="geometry" />
        </mxCell>
        <mxCell id="eS6wFpmXcqXi8iL8XK0C-36" value="&lt;span style=&quot;font-size: 20px;&quot;&gt;电子证照管理系统&lt;/span&gt;" style="rounded=1;whiteSpace=wrap;html=1;" vertex="1" parent="eS6wFpmXcqXi8iL8XK0C-33">
          <mxGeometry x="140" y="10" width="250" height="60" as="geometry" />
        </mxCell>
        <mxCell id="eS6wFpmXcqXi8iL8XK0C-37" value="&lt;span style=&quot;font-size: 20px;&quot;&gt;电子证照共享系统&lt;/span&gt;" style="rounded=1;whiteSpace=wrap;html=1;" vertex="1" parent="eS6wFpmXcqXi8iL8XK0C-33">
          <mxGeometry x="415" y="10" width="255" height="60" as="geometry" />
        </mxCell>
        <mxCell id="eS6wFpmXcqXi8iL8XK0C-83" value="" style="shape=flexArrow;endArrow=classic;html=1;rounded=0;entryX=0;entryY=0.5;entryDx=0;entryDy=0;" edge="1" parent="eS6wFpmXcqXi8iL8XK0C-33">
          <mxGeometry width="50" height="50" relative="1" as="geometry">
            <mxPoint x="688" y="31" as="sourcePoint" />
            <mxPoint x="758.9999999999998" y="31" as="targetPoint" />
          </mxGeometry>
        </mxCell>
        <mxCell id="eS6wFpmXcqXi8iL8XK0C-84" value="&lt;font style=&quot;font-size: 16px;&quot;&gt;证照上链&lt;/font&gt;" style="text;html=1;strokeColor=none;fillColor=none;align=center;verticalAlign=middle;whiteSpace=wrap;rounded=0;" vertex="1" parent="eS6wFpmXcqXi8iL8XK0C-33">
          <mxGeometry x="673" y="45" width="89" height="30" as="geometry" />
        </mxCell>
        <mxCell id="eS6wFpmXcqXi8iL8XK0C-39" value="" style="group" vertex="1" connectable="0" parent="eS6wFpmXcqXi8iL8XK0C-51">
          <mxGeometry y="241" width="980" height="80" as="geometry" />
        </mxCell>
        <mxCell id="eS6wFpmXcqXi8iL8XK0C-40" value="&lt;span style=&quot;font-size: 20px;&quot;&gt;&lt;b&gt;数据存储层&lt;/b&gt;&lt;/span&gt;" style="rounded=0;whiteSpace=wrap;html=1;" vertex="1" parent="eS6wFpmXcqXi8iL8XK0C-39">
          <mxGeometry width="130" height="80" as="geometry" />
        </mxCell>
        <mxCell id="eS6wFpmXcqXi8iL8XK0C-41" value="" style="rounded=0;whiteSpace=wrap;html=1;" vertex="1" parent="eS6wFpmXcqXi8iL8XK0C-39">
          <mxGeometry x="120" width="840" height="80" as="geometry" />
        </mxCell>
        <mxCell id="eS6wFpmXcqXi8iL8XK0C-57" value="" style="group" vertex="1" connectable="0" parent="eS6wFpmXcqXi8iL8XK0C-39">
          <mxGeometry x="140" y="10" width="800" height="60" as="geometry" />
        </mxCell>
        <mxCell id="eS6wFpmXcqXi8iL8XK0C-42" value="&lt;span style=&quot;font-size: 20px;&quot;&gt;目录信息库&lt;/span&gt;" style="rounded=1;whiteSpace=wrap;html=1;" vertex="1" parent="eS6wFpmXcqXi8iL8XK0C-57">
          <mxGeometry width="143.5897435897436" height="60" as="geometry" />
        </mxCell>
        <mxCell id="eS6wFpmXcqXi8iL8XK0C-43" value="&lt;span style=&quot;font-size: 20px;&quot;&gt;模版信息库&lt;/span&gt;" style="rounded=1;whiteSpace=wrap;html=1;" vertex="1" parent="eS6wFpmXcqXi8iL8XK0C-57">
          <mxGeometry x="152.82051282051282" width="144.6153846153846" height="60" as="geometry" />
        </mxCell>
        <mxCell id="eS6wFpmXcqXi8iL8XK0C-44" value="&lt;span style=&quot;font-size: 20px;&quot;&gt;法人/个人证照库&lt;/span&gt;" style="rounded=1;whiteSpace=wrap;html=1;" vertex="1" parent="eS6wFpmXcqXi8iL8XK0C-57">
          <mxGeometry x="306.66666666666663" width="165.1282051282051" height="60" as="geometry" />
        </mxCell>
        <mxCell id="eS6wFpmXcqXi8iL8XK0C-55" value="&lt;span style=&quot;font-size: 20px;&quot;&gt;证照文件及信息库&lt;/span&gt;" style="rounded=1;whiteSpace=wrap;html=1;" vertex="1" parent="eS6wFpmXcqXi8iL8XK0C-57">
          <mxGeometry x="481.03" width="178.97" height="60" as="geometry" />
        </mxCell>
        <mxCell id="eS6wFpmXcqXi8iL8XK0C-56" value="&lt;span style=&quot;font-size: 20px;&quot;&gt;区块链&lt;/span&gt;" style="rounded=1;whiteSpace=wrap;html=1;" vertex="1" parent="eS6wFpmXcqXi8iL8XK0C-57">
          <mxGeometry x="670" width="130" height="60" as="geometry" />
        </mxCell>
        <mxCell id="eS6wFpmXcqXi8iL8XK0C-45" value="" style="group" vertex="1" connectable="0" parent="eS6wFpmXcqXi8iL8XK0C-51">
          <mxGeometry y="369" width="980" height="80" as="geometry" />
        </mxCell>
        <mxCell id="eS6wFpmXcqXi8iL8XK0C-46" value="&lt;span style=&quot;font-size: 20px;&quot;&gt;&lt;b&gt;数据源层&lt;/b&gt;&lt;/span&gt;" style="rounded=0;whiteSpace=wrap;html=1;" vertex="1" parent="eS6wFpmXcqXi8iL8XK0C-45">
          <mxGeometry width="130" height="80" as="geometry" />
        </mxCell>
        <mxCell id="eS6wFpmXcqXi8iL8XK0C-47" value="" style="rounded=0;whiteSpace=wrap;html=1;" vertex="1" parent="eS6wFpmXcqXi8iL8XK0C-45">
          <mxGeometry x="120" width="840" height="80" as="geometry" />
        </mxCell>
        <mxCell id="eS6wFpmXcqXi8iL8XK0C-48" value="&lt;span style=&quot;font-size: 20px;&quot;&gt;电子证照库&lt;/span&gt;" style="rounded=1;whiteSpace=wrap;html=1;" vertex="1" parent="eS6wFpmXcqXi8iL8XK0C-45">
          <mxGeometry x="140" y="10" width="170" height="60" as="geometry" />
        </mxCell>
        <mxCell id="eS6wFpmXcqXi8iL8XK0C-49" value="&lt;span style=&quot;font-size: 20px;&quot;&gt;其他数据源系统&lt;/span&gt;" style="rounded=1;whiteSpace=wrap;html=1;" vertex="1" parent="eS6wFpmXcqXi8iL8XK0C-45">
          <mxGeometry x="352" y="10" width="250" height="60" as="geometry" />
        </mxCell>
        <mxCell id="eS6wFpmXcqXi8iL8XK0C-50" value="&lt;span style=&quot;font-size: 20px;&quot;&gt;其他部门或地域电子证照数据源&lt;/span&gt;" style="rounded=1;whiteSpace=wrap;html=1;" vertex="1" parent="eS6wFpmXcqXi8iL8XK0C-45">
          <mxGeometry x="637" y="10" width="303" height="60" as="geometry" />
        </mxCell>
        <mxCell id="eS6wFpmXcqXi8iL8XK0C-53" value="" style="shape=flexArrow;endArrow=classic;html=1;rounded=0;entryX=0.49;entryY=1.023;entryDx=0;entryDy=0;entryPerimeter=0;" edge="1" parent="eS6wFpmXcqXi8iL8XK0C-51">
          <mxGeometry width="50" height="50" relative="1" as="geometry">
            <mxPoint x="529" y="362" as="sourcePoint" />
            <mxPoint x="528.5999999999999" y="324.84000000000003" as="targetPoint" />
          </mxGeometry>
        </mxCell>
        <mxCell id="eS6wFpmXcqXi8iL8XK0C-54" value="&lt;font style=&quot;font-size: 18px;&quot;&gt;数据采集&lt;/font&gt;" style="text;html=1;strokeColor=none;fillColor=none;align=center;verticalAlign=middle;whiteSpace=wrap;rounded=0;" vertex="1" parent="eS6wFpmXcqXi8iL8XK0C-51">
          <mxGeometry x="420" y="330" width="86" height="30" as="geometry" />
        </mxCell>
        <mxCell id="eS6wFpmXcqXi8iL8XK0C-70" value="" style="group" vertex="1" connectable="0" parent="eS6wFpmXcqXi8iL8XK0C-51">
          <mxGeometry x="375" y="78" width="253" height="40" as="geometry" />
        </mxCell>
        <mxCell id="eS6wFpmXcqXi8iL8XK0C-63" value="" style="shape=flexArrow;endArrow=classic;html=1;rounded=0;" edge="1" parent="eS6wFpmXcqXi8iL8XK0C-70">
          <mxGeometry width="50" height="50" relative="1" as="geometry">
            <mxPoint x="110" y="40" as="sourcePoint" />
            <mxPoint x="110" as="targetPoint" />
          </mxGeometry>
        </mxCell>
        <mxCell id="eS6wFpmXcqXi8iL8XK0C-64" value="&lt;font style=&quot;font-size: 18px;&quot;&gt;上传证照&lt;/font&gt;" style="text;html=1;strokeColor=none;fillColor=none;align=center;verticalAlign=middle;whiteSpace=wrap;rounded=0;" vertex="1" parent="eS6wFpmXcqXi8iL8XK0C-70">
          <mxGeometry y="7" width="89" height="30" as="geometry" />
        </mxCell>
        <mxCell id="eS6wFpmXcqXi8iL8XK0C-67" value="" style="shape=flexArrow;endArrow=classic;html=1;rounded=0;" edge="1" parent="eS6wFpmXcqXi8iL8XK0C-70">
          <mxGeometry width="50" height="50" relative="1" as="geometry">
            <mxPoint x="154" as="sourcePoint" />
            <mxPoint x="154" y="40" as="targetPoint" />
          </mxGeometry>
        </mxCell>
        <mxCell id="eS6wFpmXcqXi8iL8XK0C-68" value="&lt;font style=&quot;font-size: 18px;&quot;&gt;调用证照&lt;/font&gt;" style="text;html=1;strokeColor=none;fillColor=none;align=center;verticalAlign=middle;whiteSpace=wrap;rounded=0;" vertex="1" parent="eS6wFpmXcqXi8iL8XK0C-70">
          <mxGeometry x="179" y="7" width="89" height="30" as="geometry" />
        </mxCell>
        <mxCell id="eS6wFpmXcqXi8iL8XK0C-71" value="" style="shape=flexArrow;endArrow=classic;html=1;rounded=0;" edge="1" parent="eS6wFpmXcqXi8iL8XK0C-51">
          <mxGeometry width="50" height="50" relative="1" as="geometry">
            <mxPoint x="485" y="239" as="sourcePoint" />
            <mxPoint x="485" y="199" as="targetPoint" />
          </mxGeometry>
        </mxCell>
        <mxCell id="eS6wFpmXcqXi8iL8XK0C-72" value="&lt;font style=&quot;font-size: 18px;&quot;&gt;上传证照&lt;/font&gt;" style="text;html=1;strokeColor=none;fillColor=none;align=center;verticalAlign=middle;whiteSpace=wrap;rounded=0;" vertex="1" parent="eS6wFpmXcqXi8iL8XK0C-51">
          <mxGeometry x="375" y="205" width="89" height="30" as="geometry" />
        </mxCell>
        <mxCell id="eS6wFpmXcqXi8iL8XK0C-73" value="" style="shape=flexArrow;endArrow=classic;html=1;rounded=0;" edge="1" parent="eS6wFpmXcqXi8iL8XK0C-51">
          <mxGeometry width="50" height="50" relative="1" as="geometry">
            <mxPoint x="529" y="199" as="sourcePoint" />
            <mxPoint x="529" y="239" as="targetPoint" />
          </mxGeometry>
        </mxCell>
        <mxCell id="eS6wFpmXcqXi8iL8XK0C-74" value="&lt;font style=&quot;font-size: 18px;&quot;&gt;调用证照&lt;/font&gt;" style="text;html=1;strokeColor=none;fillColor=none;align=center;verticalAlign=middle;whiteSpace=wrap;rounded=0;" vertex="1" parent="eS6wFpmXcqXi8iL8XK0C-51">
          <mxGeometry x="554" y="205" width="89" height="30" as="geometry" />
        </mxCell>
        <mxCell id="eS6wFpmXcqXi8iL8XK0C-77" value="" style="shape=flexArrow;endArrow=classic;html=1;rounded=0;" edge="1" parent="eS6wFpmXcqXi8iL8XK0C-51">
          <mxGeometry width="50" height="50" relative="1" as="geometry">
            <mxPoint x="879" y="76" as="sourcePoint" />
            <mxPoint x="879" y="116" as="targetPoint" />
          </mxGeometry>
        </mxCell>
        <mxCell id="eS6wFpmXcqXi8iL8XK0C-78" value="&lt;span style=&quot;font-size: 18px;&quot;&gt;身份认证/证照比对&lt;/span&gt;" style="text;html=1;strokeColor=none;fillColor=none;align=center;verticalAlign=middle;whiteSpace=wrap;rounded=0;" vertex="1" parent="eS6wFpmXcqXi8iL8XK0C-51">
          <mxGeometry x="700" y="81" width="158" height="30" as="geometry" />
        </mxCell>
        <mxCell id="eS6wFpmXcqXi8iL8XK0C-85" value="" style="shape=flexArrow;endArrow=classic;startArrow=classic;html=1;rounded=0;entryX=0.617;entryY=0.987;entryDx=0;entryDy=0;entryPerimeter=0;width=5.194805194805195;endSize=5.106493506493506;" edge="1" parent="eS6wFpmXcqXi8iL8XK0C-51" source="eS6wFpmXcqXi8iL8XK0C-56" target="eS6wFpmXcqXi8iL8XK0C-58">
          <mxGeometry width="100" height="100" relative="1" as="geometry">
            <mxPoint x="779" y="291" as="sourcePoint" />
            <mxPoint x="879" y="191" as="targetPoint" />
          </mxGeometry>
        </mxCell>
      </root>
    </mxGraphModel>
  </diagram>
</mxfile>
